<mxfile host="app.diagrams.net" modified="2023-05-31T06:10:42.712Z" agent="Mozilla/5.0 (Macintosh; Intel Mac OS X 10_15_7) AppleWebKit/537.36 (KHTML, like Gecko) Chrome/113.0.0.0 Safari/537.36" etag="3MAkFWRkMgKls-NgWw4g" version="21.3.0" type="device">
  <diagram name="pd-pe" id="7K-0NKhPHoJln8TTFYLi">
    <mxGraphModel dx="1366" dy="765" grid="1" gridSize="10" guides="1" tooltips="1" connect="1" arrows="1" fold="1" page="1" pageScale="1" pageWidth="850" pageHeight="1100" math="0" shadow="0">
      <root>
        <mxCell id="0" />
        <mxCell id="1" parent="0" />
        <mxCell id="XBJBcRfUMOLONyt92wgj-5" value="&lt;font style=&quot;font-size: 18px;&quot;&gt;Output&amp;nbsp; / Result / Response&lt;/font&gt;" style="rounded=1;whiteSpace=wrap;html=1;" vertex="1" parent="1">
          <mxGeometry x="490" y="260" width="280" height="60" as="geometry" />
        </mxCell>
        <mxCell id="XBJBcRfUMOLONyt92wgj-6" value="" style="group" vertex="1" connectable="0" parent="1">
          <mxGeometry x="40" y="40" width="340" height="285" as="geometry" />
        </mxCell>
        <mxCell id="XBJBcRfUMOLONyt92wgj-2" value="&lt;font style=&quot;font-size: 14px;&quot;&gt;Building blocks of a Prompt&lt;/font&gt;" style="rounded=1;whiteSpace=wrap;html=1;glass=0;shadow=0;fillColor=#f5f5f5;fontColor=#333333;strokeColor=#666666;arcSize=3;verticalAlign=top;" vertex="1" parent="XBJBcRfUMOLONyt92wgj-6">
          <mxGeometry width="340" height="285" as="geometry" />
        </mxCell>
        <mxCell id="XBJBcRfUMOLONyt92wgj-1" value="&lt;font style=&quot;font-size: 18px;&quot;&gt;Persona / Role / Character&lt;/font&gt;" style="rounded=1;whiteSpace=wrap;html=1;" vertex="1" parent="XBJBcRfUMOLONyt92wgj-6">
          <mxGeometry x="30" y="125" width="280" height="60" as="geometry" />
        </mxCell>
        <mxCell id="XBJBcRfUMOLONyt92wgj-3" value="&lt;font style=&quot;font-size: 18px;&quot;&gt;Task / Instruction / Command&lt;/font&gt;" style="rounded=1;whiteSpace=wrap;html=1;" vertex="1" parent="XBJBcRfUMOLONyt92wgj-6">
          <mxGeometry x="35" y="45" width="270" height="60" as="geometry" />
        </mxCell>
        <mxCell id="XBJBcRfUMOLONyt92wgj-4" value="&lt;font style=&quot;font-size: 18px;&quot;&gt;Context / Background / Additional Information&lt;/font&gt;" style="rounded=1;whiteSpace=wrap;html=1;" vertex="1" parent="XBJBcRfUMOLONyt92wgj-6">
          <mxGeometry x="30" y="205" width="280" height="60" as="geometry" />
        </mxCell>
        <mxCell id="XBJBcRfUMOLONyt92wgj-12" style="edgeStyle=orthogonalEdgeStyle;rounded=0;orthogonalLoop=1;jettySize=auto;html=1;exitX=0;exitY=0.5;exitDx=0;exitDy=0;entryX=1;entryY=0.5;entryDx=0;entryDy=0;strokeWidth=2;" edge="1" parent="1" source="XBJBcRfUMOLONyt92wgj-5" target="XBJBcRfUMOLONyt92wgj-4">
          <mxGeometry relative="1" as="geometry" />
        </mxCell>
        <mxCell id="XBJBcRfUMOLONyt92wgj-11" style="edgeStyle=orthogonalEdgeStyle;rounded=0;orthogonalLoop=1;jettySize=auto;html=1;exitX=0;exitY=0;exitDx=70;exitDy=80;exitPerimeter=0;strokeWidth=2;" edge="1" parent="1" source="XBJBcRfUMOLONyt92wgj-8" target="XBJBcRfUMOLONyt92wgj-5">
          <mxGeometry relative="1" as="geometry" />
        </mxCell>
        <mxCell id="XBJBcRfUMOLONyt92wgj-8" value="&lt;font style=&quot;font-size: 14px;&quot;&gt;LLMs&lt;/font&gt;" style="shape=cube;whiteSpace=wrap;html=1;boundedLbl=1;backgroundOutline=1;darkOpacity=0.05;darkOpacity2=0.1;fillColor=#d5e8d4;gradientColor=#97d077;strokeColor=#82b366;" vertex="1" parent="1">
          <mxGeometry x="590" y="40" width="120" height="80" as="geometry" />
        </mxCell>
        <mxCell id="XBJBcRfUMOLONyt92wgj-10" value="&lt;font style=&quot;font-size: 13px;&quot;&gt;Input to LLM&lt;/font&gt;" style="edgeStyle=orthogonalEdgeStyle;rounded=0;orthogonalLoop=1;jettySize=auto;html=1;exitX=1;exitY=0.25;exitDx=0;exitDy=0;entryX=0;entryY=0;entryDx=0;entryDy=30;entryPerimeter=0;strokeWidth=2;" edge="1" parent="1" source="XBJBcRfUMOLONyt92wgj-2" target="XBJBcRfUMOLONyt92wgj-8">
          <mxGeometry relative="1" as="geometry" />
        </mxCell>
        <mxCell id="XBJBcRfUMOLONyt92wgj-13" value="Can be used back into the prompt to build sequential prompt or in other terms Chat Conversation  " style="shape=callout;whiteSpace=wrap;perimeter=calloutPerimeter;direction=west;size=30;position=0.46;base=20;position2=0.54;dashed=1;fillColor=#eeeeee;strokeColor=#36393d;align=left;labelBorderColor=none;opacity=80;textOpacity=70;spacingTop=2;spacing=4;" vertex="1" parent="1">
          <mxGeometry x="380" y="300" width="120" height="130" as="geometry" />
        </mxCell>
        <mxCell id="XBJBcRfUMOLONyt92wgj-14" value="" style="verticalLabelPosition=bottom;html=1;verticalAlign=top;strokeWidth=5;shape=mxgraph.lean_mapping.physical_pull;pointerEvents=1;direction=west;textDirection=ltr;labelPosition=right;align=left;flipH=1;gradientColor=#003333;gradientDirection=west;perimeterSpacing=2;fillColor=#00CCCC;opacity=70;strokeColor=#009999;rotation=15;" vertex="1" parent="1">
          <mxGeometry x="471.25" y="563.75" width="150" height="157.5" as="geometry" />
        </mxCell>
        <mxCell id="XBJBcRfUMOLONyt92wgj-15" value="Prompt Design - Components" style="text;html=1;strokeColor=none;fillColor=none;align=center;verticalAlign=middle;whiteSpace=wrap;rounded=0;fontSize=22;" vertex="1" parent="1">
          <mxGeometry x="250" width="360" height="30" as="geometry" />
        </mxCell>
        <mxCell id="XBJBcRfUMOLONyt92wgj-16" value="Prompt Engineering - Process" style="text;html=1;strokeColor=none;fillColor=none;align=center;verticalAlign=middle;whiteSpace=wrap;rounded=0;fontSize=22;" vertex="1" parent="1">
          <mxGeometry x="210" y="460" width="360" height="30" as="geometry" />
        </mxCell>
        <mxCell id="XBJBcRfUMOLONyt92wgj-17" value="&lt;font style=&quot;font-size: 18px;&quot;&gt;Output&amp;nbsp; / Result / Response&lt;/font&gt;" style="rounded=1;whiteSpace=wrap;html=1;" vertex="1" parent="1">
          <mxGeometry x="525" y="720" width="280" height="60" as="geometry" />
        </mxCell>
        <mxCell id="XBJBcRfUMOLONyt92wgj-18" value="" style="group" vertex="1" connectable="0" parent="1">
          <mxGeometry x="75" y="500" width="340" height="285" as="geometry" />
        </mxCell>
        <mxCell id="XBJBcRfUMOLONyt92wgj-19" value="&lt;font style=&quot;font-size: 14px;&quot;&gt;Building blocks of a Prompt&lt;/font&gt;" style="rounded=1;whiteSpace=wrap;html=1;glass=0;shadow=0;fillColor=#f5f5f5;fontColor=#333333;strokeColor=#666666;arcSize=3;verticalAlign=top;" vertex="1" parent="XBJBcRfUMOLONyt92wgj-18">
          <mxGeometry width="340" height="285" as="geometry" />
        </mxCell>
        <mxCell id="XBJBcRfUMOLONyt92wgj-20" value="&lt;font style=&quot;font-size: 18px;&quot;&gt;Persona / Role / Character&lt;/font&gt;" style="rounded=1;whiteSpace=wrap;html=1;" vertex="1" parent="XBJBcRfUMOLONyt92wgj-18">
          <mxGeometry x="30" y="125" width="280" height="60" as="geometry" />
        </mxCell>
        <mxCell id="XBJBcRfUMOLONyt92wgj-21" value="&lt;font style=&quot;font-size: 18px;&quot;&gt;Task / Instruction / Command&lt;/font&gt;" style="rounded=1;whiteSpace=wrap;html=1;" vertex="1" parent="XBJBcRfUMOLONyt92wgj-18">
          <mxGeometry x="35" y="45" width="270" height="60" as="geometry" />
        </mxCell>
        <mxCell id="XBJBcRfUMOLONyt92wgj-22" value="&lt;font style=&quot;font-size: 18px;&quot;&gt;Context / Background / Additional Information&lt;/font&gt;" style="rounded=1;whiteSpace=wrap;html=1;" vertex="1" parent="XBJBcRfUMOLONyt92wgj-18">
          <mxGeometry x="30" y="205" width="280" height="60" as="geometry" />
        </mxCell>
        <mxCell id="XBJBcRfUMOLONyt92wgj-23" style="edgeStyle=orthogonalEdgeStyle;rounded=0;orthogonalLoop=1;jettySize=auto;html=1;exitX=0;exitY=0.5;exitDx=0;exitDy=0;entryX=1;entryY=0.5;entryDx=0;entryDy=0;strokeWidth=2;" edge="1" parent="1" source="XBJBcRfUMOLONyt92wgj-17" target="XBJBcRfUMOLONyt92wgj-22">
          <mxGeometry relative="1" as="geometry" />
        </mxCell>
        <mxCell id="XBJBcRfUMOLONyt92wgj-24" style="edgeStyle=orthogonalEdgeStyle;rounded=0;orthogonalLoop=1;jettySize=auto;html=1;exitX=0;exitY=0;exitDx=70;exitDy=80;exitPerimeter=0;strokeWidth=2;" edge="1" parent="1" source="XBJBcRfUMOLONyt92wgj-25" target="XBJBcRfUMOLONyt92wgj-17">
          <mxGeometry relative="1" as="geometry" />
        </mxCell>
        <mxCell id="XBJBcRfUMOLONyt92wgj-25" value="&lt;font style=&quot;font-size: 14px;&quot;&gt;LLMs&lt;/font&gt;" style="shape=cube;whiteSpace=wrap;html=1;boundedLbl=1;backgroundOutline=1;darkOpacity=0.05;darkOpacity2=0.1;fillColor=#d5e8d4;gradientColor=#97d077;strokeColor=#82b366;" vertex="1" parent="1">
          <mxGeometry x="625" y="500" width="120" height="80" as="geometry" />
        </mxCell>
        <mxCell id="XBJBcRfUMOLONyt92wgj-26" value="&lt;font style=&quot;font-size: 13px;&quot;&gt;Input to LLM&lt;/font&gt;" style="edgeStyle=orthogonalEdgeStyle;rounded=0;orthogonalLoop=1;jettySize=auto;html=1;exitX=1;exitY=0.25;exitDx=0;exitDy=0;entryX=0;entryY=0;entryDx=0;entryDy=30;entryPerimeter=0;strokeWidth=2;" edge="1" parent="1" source="XBJBcRfUMOLONyt92wgj-19" target="XBJBcRfUMOLONyt92wgj-25">
          <mxGeometry relative="1" as="geometry" />
        </mxCell>
        <mxCell id="XBJBcRfUMOLONyt92wgj-27" value="Can be used back into the prompt to build sequential prompt or in other terms Chat Conversation  " style="shape=callout;whiteSpace=wrap;perimeter=calloutPerimeter;direction=west;size=30;position=0.46;base=20;position2=0.54;dashed=1;fillColor=#eeeeee;strokeColor=#36393d;align=left;labelBorderColor=none;opacity=80;textOpacity=70;spacingTop=2;spacing=4;" vertex="1" parent="1">
          <mxGeometry x="415" y="760" width="120" height="130" as="geometry" />
        </mxCell>
        <mxCell id="XBJBcRfUMOLONyt92wgj-28" value="&lt;b&gt;&lt;font color=&quot;#006666&quot;&gt;The iterative process to reaching the best Output is Prompt Engineering&lt;/font&gt;&lt;/b&gt;" style="text;html=1;strokeColor=none;fillColor=none;align=center;verticalAlign=middle;whiteSpace=wrap;rounded=0;" vertex="1" parent="1">
          <mxGeometry x="477.5" y="630" width="120" height="30" as="geometry" />
        </mxCell>
      </root>
    </mxGraphModel>
  </diagram>
</mxfile>
